<svg xmlns="http://www.w3.org/2000/svg" viewBox="-9 -61 220 80"><path d="M10.45-31.29L36.26-31.29L36.26-31.29Q39.49-31.29 41.67-30.26Q43.85-29.23 44.94-27.48Q46.03-25.73 46.03-23.63L46.03-23.63L46.03-20.60Q46.03-18.49 44.94-16.76Q43.85-15.02 41.67-13.99Q39.49-12.96 36.26-12.96L36.26-12.96L10.45-12.96L10.45 0L0.91 0L0.91-18.35L34.48-18.35Q35.60-18.35 36.49-19.14Q37.38-19.92 37.38-21.05L37.38-21.05L37.38-23.20Q37.38-24.30 36.49-25.09Q35.60-25.88 34.48-25.88L34.48-25.88L0.91-25.88L0.91-31.29L4.73-31.29L10.45-31.29ZM55.66 0.26L55.66-31.52L55.66-31.52Q55.66-33.63 56.54-35.16Q57.42-36.68 59.38-37.50Q61.34-38.32 64.59-38.32L64.59-38.32L69.98-38.32L69.98-33.33L63.89-33.33L63.89 2.06L69.98 2.06L69.98 7.05L64.17 7.05Q60.91 7.05 59.06 6.23Q57.21 5.41 56.44 3.89Q55.66 2.37 55.66 0.26L55.66 0.26ZM114.21 0L101.18-9.70L101.18-9.70Q104.98-12.66 108.98-15.28L108.98-15.28L129.68 0L114.21 0ZM87.28-31.29L97.95-23.41L97.95-23.41Q93.47-20.77 89.72-18.23L89.72-18.23L72.16-31.29L87.28-31.29ZM86.25 0L71.48 0L71.48 0Q71.48 0 73.51-1.98Q75.54-3.96 79.61-7.32Q83.67-10.69 89.75-14.91Q95.84-19.13 103.96-23.68Q112.08-28.24 122.21-32.63Q132.35-37.01 144.52-40.68Q156.68-44.34 170.87-46.78Q185.06-49.22 201.26-49.88L201.26-49.88Q201.26-49.88 197.02-49.32Q192.77-48.77 185.41-47.38Q178.05-45.98 168.52-43.55Q158.98-41.11 148.22-37.37Q137.46-33.63 126.45-28.37Q115.43-23.11 105.14-16.08Q94.85-9.05 86.25 0L86.25 0ZM151.13-31.52L151.13-31.52L151.13 0.26Q151.13 2.37 150.35 3.89Q149.58 5.41 147.73 6.23Q145.88 7.05 142.62 7.05L142.62 7.05L136.80 7.05L136.80 2.06L142.88 2.06L142.88-33.33L136.80-33.33L136.80-38.32L142.20-38.32Q145.43-38.32 147.40-37.50Q149.37-36.68 150.25-35.16Q151.13-33.63 151.13-31.52L151.13-31.52Z"></path></svg>
